<?xml version="1.0" encoding="UTF-8"?>
<svg width="800" height="600" xmlns="http://www.w3.org/2000/svg">
  <g>
    <title>Ozon Price Optimizer Pro</title>
    <!-- OZON Logo (Blue) -->
    <g transform="translate(50, 200) scale(0.8)">
      <path d="M175,0C78.3,0,0,78.3,0,175s78.3,175,175,175s175-78.3,175-175S271.7,0,175,0z M175,280c-57.9,0-105-47.1-105-105
        s47.1-105,105-105s105,47.1,105,105S232.9,280,175,280z" fill="#2050F0"/>
      <path d="M420,0l-70,175l70,175h70l-70-175l70-175H420z" fill="#2050F0"/>
      <path d="M560,0v350h70V0H560z" fill="#2050F0"/>
      <path d="M770,0H630v70h70v210h70V70h70V0H770z" fill="#2050F0"/>
    </g>
    <!-- Price Optimizer Pro Text (Light Blue) -->
    <text x="400" y="450" font-family="Arial" font-size="60" text-anchor="middle" fill="#8AA2F0">Price Optimizer Pro</text>
  </g>
</svg>
